{
    "asset" : {
        "generator" : "Khronos glTF Blender I/O v1.7.33",
        "version" : "2.0"
    },
    "scene" : 0,
    "scenes" : [
        {
            "name" : "Scene",
            "nodes" : [
                0
            ]
        }
    ],
    "nodes" : [
        {
            "mesh" : 0,
            "name" : "CameraMesh",
            "rotation" : [
                0.7071068286895752,
                0,
                0,
                0.7071067094802856
            ],
            "scale" : [
                0.009999999776482582,
                0.009999999776482582,
                0.009999999776482582
            ]
        }
    ],
    "materials" : [
        {
            "doubleSided" : true,
            "name" : "FrontGlassMat",
            "pbrMetallicRoughness" : {
                "baseColorFactor" : [
                    0.015469999983906746,
                    0.031149160116910934,
                    0.03400000184774399,
                    1
                ],
                "metallicFactor" : 0.5,
                "roughnessFactor" : 0.5527864098548889
            }
        },
        {
            "doubleSided" : true,
            "name" : "CameraBodyMat",
            "pbrMetallicRoughness" : {
                "baseColorFactor" : [
                    0.800000011920929,
                    0.800000011920929,
                    0.800000011920929,
                    1
                ]
            }
        },
        {
            "doubleSided" : true,
            "name" : "Material.001",
            "pbrMetallicRoughness" : {
                "baseColorFactor" : [
                    0.02037765085697174,
                    0.02037765085697174,
                    0.02037765085697174,
                    1
                ],
                "metallicFactor" : 0,
                "roughnessFactor" : 0.5
            }
        }
    ],
    "meshes" : [
        {
            "name" : "Mesh",
            "primitives" : [
                {
                    "attributes" : {
                        "POSITION" : 0,
                        "NORMAL" : 1,
                        "TEXCOORD_0" : 2
                    },
                    "indices" : 3,
                    "material" : 0
                },
                {
                    "attributes" : {
                        "POSITION" : 4,
                        "NORMAL" : 5,
                        "TEXCOORD_0" : 6
                    },
                    "indices" : 7,
                    "material" : 1
                },
                {
                    "attributes" : {
                        "POSITION" : 8,
                        "NORMAL" : 9,
                        "TEXCOORD_0" : 10
                    },
                    "indices" : 11,
                    "material" : 2
                }
            ]
        }
    ],
    "accessors" : [
        {
            "bufferView" : 0,
            "componentType" : 5126,
            "count" : 35,
            "max" : [
                2.3800506591796875,
                6.977630615234375,
                -4.266754150390625
            ],
            "min" : [
                -2.3800506591796875,
                6.977630615234375,
                -9.026870727539062
            ],
            "type" : "VEC3"
        },
        {
            "bufferView" : 1,
            "componentType" : 5126,
            "count" : 35,
            "type" : "VEC3"
        },
        {
            "bufferView" : 2,
            "componentType" : 5126,
            "count" : 35,
            "type" : "VEC2"
        },
        {
            "bufferView" : 3,
            "componentType" : 5123,
            "count" : 60,
            "type" : "SCALAR"
        },
        {
            "bufferView" : 4,
            "componentType" : 5126,
            "count" : 1404,
            "max" : [
                10.199996948242188,
                5.236602783203125,
                0
            ],
            "min" : [
                -10.199996948242188,
                -7.9776611328125,
                -15.3297119140625
            ],
            "type" : "VEC3"
        },
        {
            "bufferView" : 5,
            "componentType" : 5126,
            "count" : 1404,
            "type" : "VEC3"
        },
        {
            "bufferView" : 6,
            "componentType" : 5126,
            "count" : 1404,
            "type" : "VEC2"
        },
        {
            "bufferView" : 7,
            "componentType" : 5123,
            "count" : 2355,
            "type" : "SCALAR"
        },
        {
            "bufferView" : 8,
            "componentType" : 5126,
            "count" : 377,
            "max" : [
                10,
                7.977630615234375,
                -1.696624755859375
            ],
            "min" : [
                -10,
                -7.37774658203125,
                -10.646812438964844
            ],
            "type" : "VEC3"
        },
        {
            "bufferView" : 9,
            "componentType" : 5126,
            "count" : 377,
            "type" : "VEC3"
        },
        {
            "bufferView" : 10,
            "componentType" : 5126,
            "count" : 377,
            "type" : "VEC2"
        },
        {
            "bufferView" : 11,
            "componentType" : 5123,
            "count" : 672,
            "type" : "SCALAR"
        }
    ],
    "bufferViews" : [
        {
            "buffer" : 0,
            "byteLength" : 420,
            "byteOffset" : 0
        },
        {
            "buffer" : 0,
            "byteLength" : 420,
            "byteOffset" : 420
        },
        {
            "buffer" : 0,
            "byteLength" : 280,
            "byteOffset" : 840
        },
        {
            "buffer" : 0,
            "byteLength" : 120,
            "byteOffset" : 1120
        },
        {
            "buffer" : 0,
            "byteLength" : 16848,
            "byteOffset" : 1240
        },
        {
            "buffer" : 0,
            "byteLength" : 16848,
            "byteOffset" : 18088
        },
        {
            "buffer" : 0,
            "byteLength" : 11232,
            "byteOffset" : 34936
        },
        {
            "buffer" : 0,
            "byteLength" : 4710,
            "byteOffset" : 46168
        },
        {
            "buffer" : 0,
            "byteLength" : 4524,
            "byteOffset" : 50880
        },
        {
            "buffer" : 0,
            "byteLength" : 4524,
            "byteOffset" : 55404
        },
        {
            "buffer" : 0,
            "byteLength" : 3016,
            "byteOffset" : 59928
        },
        {
            "buffer" : 0,
            "byteLength" : 1344,
            "byteOffset" : 62944
        }
    ],
    "buffers" : [
        {
            "byteLength" : 64288,
            "uri" : "data:application/octet-stream;base64,"
        }
    ]
}
