{
    "asset" : {
        "generator" : "Khronos glTF Blender I/O v1.7.33",
        "version" : "2.0"
    },
    "scene" : 0,
    "scenes" : [
        {
            "name" : "Scene",
            "nodes" : [
                14
            ]
        }
    ],
    "nodes" : [
        {
            "mesh" : 0,
            "name" : "joint_1_mesh.001",
            "rotation" : [
                0.7071068286895752,
                0,
                0,
                0.7071067094802856
            ]
        },
        {
            "mesh" : 1,
            "name" : "joint_2_mesh.001",
            "rotation" : [
                0.7071068286895752,
                0,
                0,
                0.7071067094802856
            ]
        },
        {
            "mesh" : 2,
            "name" : "joint_3_mesh.001",
            "rotation" : [
                0.7071068286895752,
                0,
                0,
                0.7071067094802856
            ]
        },
        {
            "mesh" : 3,
            "name" : "joint_4_mesh.001",
            "rotation" : [
                0.7071068286895752,
                0,
                0,
                0.7071067094802856
            ]
        },
        {
            "mesh" : 4,
            "name" : "joint_5_mesh.001",
            "rotation" : [
                -0.5,
                0.5,
                -0.5,
                0.5
            ]
        },
        {
            "mesh" : 5,
            "name" : "joint_6_mesh.001",
            "rotation" : [
                0.7071068286895752,
                0,
                0,
                0.7071067094802856
            ]
        },
        {
            "mesh" : 6,
            "name" : "joint_7_mesh.001"
        },
        {
            "children" : [
                6
            ],
            "name" : "joint_7.001",
            "translation" : [
                0.0005907416343688965,
                0.3528106212615967,
                0.3790152072906494
            ]
        },
        {
            "children" : [
                5,
                7
            ],
            "name" : "joint_6.001",
            "translation" : [
                0.33496445417404175,
                0,
                0.34731364250183105
            ]
        },
        {
            "children" : [
                4,
                8
            ],
            "name" : "joint_5.001",
            "translation" : [
                0.004155784845352173,
                0,
                0.964392900466919
            ]
        },
        {
            "children" : [
                3,
                9
            ],
            "name" : "joint_4.001",
            "translation" : [
                -0.030083179473876953,
                0,
                1.10335111618042
            ]
        },
        {
            "children" : [
                2,
                10
            ],
            "name" : "joint_3.001",
            "translation" : [
                0.3289400041103363,
                0,
                0.5987308025360107
            ]
        },
        {
            "children" : [
                1,
                11
            ],
            "name" : "joint_2.001",
            "translation" : [
                0,
                0,
                0.7161059379577637
            ]
        },
        {
            "children" : [
                0,
                12
            ],
            "name" : "joint_1.001"
        },
        {
            "children" : [
                13
            ],
            "name" : "myCobot_M5.001"
        }
    ],
    "materials" : [
        {
            "doubleSided" : true,
            "name" : "material0",
            "pbrMetallicRoughness" : {
                "baseColorTexture" : {
                    "index" : 0
                },
                "metallicFactor" : 0,
                "roughnessFactor" : 0.5
            }
        },
        {
            "doubleSided" : true,
            "name" : "material0.001",
            "pbrMetallicRoughness" : {
                "metallicFactor" : 0,
                "roughnessFactor" : 0.5
            }
        },
        {
            "doubleSided" : true,
            "name" : "material0.010",
            "pbrMetallicRoughness" : {
                "baseColorTexture" : {
                    "index" : 1
                },
                "metallicFactor" : 0,
                "roughnessFactor" : 0.5
            }
        },
        {
            "doubleSided" : true,
            "name" : "material0.011",
            "pbrMetallicRoughness" : {
                "baseColorTexture" : {
                    "index" : 2
                },
                "metallicFactor" : 0,
                "roughnessFactor" : 0.5
            }
        }
    ],
    "meshes" : [
        {
            "name" : "shape0.014",
            "primitives" : [
                {
                    "attributes" : {
                        "POSITION" : 0,
                        "NORMAL" : 1,
                        "TEXCOORD_0" : 2
                    },
                    "indices" : 3,
                    "material" : 0
                }
            ]
        },
        {
            "name" : "shape0.015",
            "primitives" : [
                {
                    "attributes" : {
                        "POSITION" : 4,
                        "NORMAL" : 5,
                        "TEXCOORD_0" : 6
                    },
                    "indices" : 7,
                    "material" : 1
                }
            ]
        },
        {
            "name" : "shape0.016",
            "primitives" : [
                {
                    "attributes" : {
                        "POSITION" : 8,
                        "NORMAL" : 9,
                        "TEXCOORD_0" : 10
                    },
                    "indices" : 11,
                    "material" : 1
                }
            ]
        },
        {
            "name" : "shape0.017",
            "primitives" : [
                {
                    "attributes" : {
                        "POSITION" : 12,
                        "NORMAL" : 13,
                        "TEXCOORD_0" : 14
                    },
                    "indices" : 15,
                    "material" : 1
                }
            ]
        },
        {
            "name" : "shape0.021",
            "primitives" : [
                {
                    "attributes" : {
                        "POSITION" : 16,
                        "NORMAL" : 17,
                        "TEXCOORD_0" : 18
                    },
                    "indices" : 19,
                    "material" : 1
                }
            ]
        },
        {
            "name" : "shape0.019",
            "primitives" : [
                {
                    "attributes" : {
                        "POSITION" : 20,
                        "NORMAL" : 21,
                        "TEXCOORD_0" : 22
                    },
                    "indices" : 23,
                    "material" : 2
                }
            ]
        },
        {
            "name" : "shape0.020",
            "primitives" : [
                {
                    "attributes" : {
                        "POSITION" : 24,
                        "NORMAL" : 25,
                        "TEXCOORD_0" : 26
                    },
                    "indices" : 27,
                    "material" : 3
                }
            ]
        }
    ],
    "textures" : [
        {
            "sampler" : 0,
            "source" : 0
        },
        {
            "sampler" : 0,
            "source" : 1
        },
        {
            "sampler" : 0,
            "source" : 2
        }
    ],
    "images" : [
        {
            "bufferView" : 4,
            "mimeType" : "image/png",
            "name" : "joint1"
        },
        {
            "bufferView" : 25,
            "mimeType" : "image/png",
            "name" : "joint6"
        },
        {
            "bufferView" : 30,
            "mimeType" : "image/png",
            "name" : "joint7"
        }
    ],
    "accessors" : [
        {
            "bufferView" : 0,
            "componentType" : 5126,
            "count" : 10273,
            "max" : [
                0.45000702142715454,
                0.7300000786781311,
                0.5199999809265137
            ],
            "min" : [
                -0.4499930143356323,
                0,
                -0.44793999195098877
            ],
            "type" : "VEC3"
        },
        {
            "bufferView" : 1,
            "componentType" : 5126,
            "count" : 10273,
            "type" : "VEC3"
        },
        {
            "bufferView" : 2,
            "componentType" : 5126,
            "count" : 10273,
            "type" : "VEC2"
        },
        {
            "bufferView" : 3,
            "componentType" : 5123,
            "count" : 10377,
            "type" : "SCALAR"
        },
        {
            "bufferView" : 5,
            "componentType" : 5126,
            "count" : 8422,
            "max" : [
                0.36570101976394653,
                0.8387830257415771,
                0.24000000953674316
            ],
            "min" : [
                -0.23964199423789978,
                -0.0318170003592968,
                -0.24000000953674316
            ],
            "type" : "VEC3"
        },
        {
            "bufferView" : 6,
            "componentType" : 5126,
            "count" : 8422,
            "type" : "VEC3"
        },
        {
            "bufferView" : 7,
            "componentType" : 5126,
            "count" : 8422,
            "type" : "VEC2"
        },
        {
            "bufferView" : 8,
            "componentType" : 5123,
            "count" : 8436,
            "type" : "SCALAR"
        },
        {
            "bufferView" : 9,
            "componentType" : 5126,
            "count" : 12328,
            "max" : [
                0.5271590352058411,
                1.3199999332427979,
                0.24000000953674316
            ],
            "min" : [
                -0.027239900082349777,
                -0.24000000953674316,
                -0.24000000953674316
            ],
            "type" : "VEC3"
        },
        {
            "bufferView" : 10,
            "componentType" : 5126,
            "count" : 12328,
            "type" : "VEC3"
        },
        {
            "bufferView" : 11,
            "componentType" : 5126,
            "count" : 12328,
            "type" : "VEC2"
        },
        {
            "bufferView" : 12,
            "componentType" : 5123,
            "count" : 12375,
            "type" : "SCALAR"
        },
        {
            "bufferView" : 13,
            "componentType" : 5126,
            "count" : 10953,
            "max" : [
                0.04535969719290733,
                1.1516000032424927,
                0.21599900722503662
            ],
            "min" : [
                -0.5296399593353271,
                -0.21639999747276306,
                -0.21599900722503662
            ],
            "type" : "VEC3"
        },
        {
            "bufferView" : 14,
            "componentType" : 5126,
            "count" : 10953,
            "type" : "VEC3"
        },
        {
            "bufferView" : 15,
            "componentType" : 5126,
            "count" : 10953,
            "type" : "VEC2"
        },
        {
            "bufferView" : 16,
            "componentType" : 5123,
            "count" : 11019,
            "type" : "SCALAR"
        },
        {
            "bufferView" : 17,
            "componentType" : 5126,
            "count" : 14810,
            "max" : [
                0.1929371953010559,
                0.19706720113754272,
                0.5263530611991882
            ],
            "min" : [
                -0.19292710721492767,
                -0.36636531352996826,
                -0.001443270011804998
            ],
            "type" : "VEC3"
        },
        {
            "bufferView" : 18,
            "componentType" : 5126,
            "count" : 14810,
            "type" : "VEC3"
        },
        {
            "bufferView" : 19,
            "componentType" : 5126,
            "count" : 14810,
            "type" : "VEC2"
        },
        {
            "bufferView" : 20,
            "componentType" : 5123,
            "count" : 15474,
            "type" : "SCALAR"
        },
        {
            "bufferView" : 21,
            "componentType" : 5126,
            "count" : 3632,
            "max" : [
                0.19199998676776886,
                0.570637047290802,
                0.21599999070167542
            ],
            "min" : [
                -0.19199998676776886,
                0,
                -0.35099998116493225
            ],
            "type" : "VEC3"
        },
        {
            "bufferView" : 22,
            "componentType" : 5126,
            "count" : 3632,
            "type" : "VEC3"
        },
        {
            "bufferView" : 23,
            "componentType" : 5126,
            "count" : 3632,
            "type" : "VEC2"
        },
        {
            "bufferView" : 24,
            "componentType" : 5123,
            "count" : 3666,
            "type" : "SCALAR"
        },
        {
            "bufferView" : 26,
            "componentType" : 5126,
            "count" : 2427,
            "max" : [
                0.19175401329994202,
                0.13699999451637268,
                0.19175401329994202
            ],
            "min" : [
                -0.19101500511169434,
                0,
                -0.19199998676776886
            ],
            "type" : "VEC3"
        },
        {
            "bufferView" : 27,
            "componentType" : 5126,
            "count" : 2427,
            "type" : "VEC3"
        },
        {
            "bufferView" : 28,
            "componentType" : 5126,
            "count" : 2427,
            "type" : "VEC2"
        },
        {
            "bufferView" : 29,
            "componentType" : 5123,
            "count" : 2568,
            "type" : "SCALAR"
        }
    ],
    "bufferViews" : [
        {
            "buffer" : 0,
            "byteLength" : 123276,
            "byteOffset" : 0
        },
        {
            "buffer" : 0,
            "byteLength" : 123276,
            "byteOffset" : 123276
        },
        {
            "buffer" : 0,
            "byteLength" : 82184,
            "byteOffset" : 246552
        },
        {
            "buffer" : 0,
            "byteLength" : 20754,
            "byteOffset" : 328736
        },
        {
            "buffer" : 0,
            "byteLength" : 98154,
            "byteOffset" : 349492
        },
        {
            "buffer" : 0,
            "byteLength" : 101064,
            "byteOffset" : 447648
        },
        {
            "buffer" : 0,
            "byteLength" : 101064,
            "byteOffset" : 548712
        },
        {
            "buffer" : 0,
            "byteLength" : 67376,
            "byteOffset" : 649776
        },
        {
            "buffer" : 0,
            "byteLength" : 16872,
            "byteOffset" : 717152
        },
        {
            "buffer" : 0,
            "byteLength" : 147936,
            "byteOffset" : 734024
        },
        {
            "buffer" : 0,
            "byteLength" : 147936,
            "byteOffset" : 881960
        },
        {
            "buffer" : 0,
            "byteLength" : 98624,
            "byteOffset" : 1029896
        },
        {
            "buffer" : 0,
            "byteLength" : 24750,
            "byteOffset" : 1128520
        },
        {
            "buffer" : 0,
            "byteLength" : 131436,
            "byteOffset" : 1153272
        },
        {
            "buffer" : 0,
            "byteLength" : 131436,
            "byteOffset" : 1284708
        },
        {
            "buffer" : 0,
            "byteLength" : 87624,
            "byteOffset" : 1416144
        },
        {
            "buffer" : 0,
            "byteLength" : 22038,
            "byteOffset" : 1503768
        },
        {
            "buffer" : 0,
            "byteLength" : 177720,
            "byteOffset" : 1525808
        },
        {
            "buffer" : 0,
            "byteLength" : 177720,
            "byteOffset" : 1703528
        },
        {
            "buffer" : 0,
            "byteLength" : 118480,
            "byteOffset" : 1881248
        },
        {
            "buffer" : 0,
            "byteLength" : 30948,
            "byteOffset" : 1999728
        },
        {
            "buffer" : 0,
            "byteLength" : 43584,
            "byteOffset" : 2030676
        },
        {
            "buffer" : 0,
            "byteLength" : 43584,
            "byteOffset" : 2074260
        },
        {
            "buffer" : 0,
            "byteLength" : 29056,
            "byteOffset" : 2117844
        },
        {
            "buffer" : 0,
            "byteLength" : 7332,
            "byteOffset" : 2146900
        },
        {
            "buffer" : 0,
            "byteLength" : 26732,
            "byteOffset" : 2154232
        },
        {
            "buffer" : 0,
            "byteLength" : 29124,
            "byteOffset" : 2180964
        },
        {
            "buffer" : 0,
            "byteLength" : 29124,
            "byteOffset" : 2210088
        },
        {
            "buffer" : 0,
            "byteLength" : 19416,
            "byteOffset" : 2239212
        },
        {
            "buffer" : 0,
            "byteLength" : 5136,
            "byteOffset" : 2258628
        },
        {
            "buffer" : 0,
            "byteLength" : 7687,
            "byteOffset" : 2263764
        }
    ],
    "samplers" : [
        {
            "magFilter" : 9729,
            "minFilter" : 9987
        }
    ],
    "buffers" : [
        {
            "byteLength" : 2271452,
            "uri" : "data:application/octet-stream;base64,"
        }
    ]
}
