{
    "asset" : {
        "generator" : "Khronos glTF Blender I/O v1.6.16",
        "version" : "2.0"
    },
    "scene" : 0,
    "scenes" : [
        {
            "name" : "Scene",
            "nodes" : [
                1
            ]
        }
    ],
    "nodes" : [
        {
            "mesh" : 0,
            "name" : "Room"
        },
        {
            "children" : [
                0
            ],
            "name" : "MyRoom"
        }
    ],
    "materials" : [
        {
            "doubleSided" : true,
            "name" : "room",
            "pbrMetallicRoughness" : {
                "baseColorTexture" : {
                    "index" : 0
                },
                "metallicFactor" : 0,
                "roughnessFactor" : 0.5
            }
        }
    ],
    "meshes" : [
        {
            "name" : "Plane.008",
            "primitives" : [
                {
                    "attributes" : {
                        "POSITION" : 0,
                        "NORMAL" : 1,
                        "TEXCOORD_0" : 2
                    },
                    "indices" : 3,
                    "material" : 0
                }
            ]
        }
    ],
    "textures" : [
        {
            "sampler" : 0,
            "source" : 0
        }
    ],
    "images" : [
        {
            "bufferView" : 4,
            "mimeType" : "image/png",
            "name" : "room_bake2"
        }
    ],
    "accessors" : [
        {
            "bufferView" : 0,
            "componentType" : 5126,
            "count" : 16503,
            "max" : [
                4,
                5,
                4
            ],
            "min" : [
                -4.199999809265137,
                -0.20000000298023224,
                -4.199999809265137
            ],
            "type" : "VEC3"
        },
        {
            "bufferView" : 1,
            "componentType" : 5126,
            "count" : 16503,
            "type" : "VEC3"
        },
        {
            "bufferView" : 2,
            "componentType" : 5126,
            "count" : 16503,
            "type" : "VEC2"
        },
        {
            "bufferView" : 3,
            "componentType" : 5123,
            "count" : 16749,
            "type" : "SCALAR"
        }
    ],
    "bufferViews" : [
        {
            "buffer" : 0,
            "byteLength" : 198036,
            "byteOffset" : 0
        },
        {
            "buffer" : 0,
            "byteLength" : 198036,
            "byteOffset" : 198036
        },
        {
            "buffer" : 0,
            "byteLength" : 132024,
            "byteOffset" : 396072
        },
        {
            "buffer" : 0,
            "byteLength" : 33498,
            "byteOffset" : 528096
        },
        {
            "buffer" : 0,
            "byteLength" : 929040,
            "byteOffset" : 561596
        }
    ],
    "samplers" : [
        {
            "magFilter" : 9729,
            "minFilter" : 9987
        }
    ],
    "buffers" : [
        {
            "byteLength" : 1490636,
            "uri" : "data:application/octet-stream;base64,"
        }
    ]
}
