{
    "asset" : {
        "generator" : "Khronos glTF Blender I/O v1.6.16",
        "version" : "2.0"
    },
    "scene" : 0,
    "scenes" : [
        {
            "name" : "Scene",
            "nodes" : [
                1
            ]
        }
    ],
    "nodes" : [
        {
            "mesh" : 0,
            "name" : "N64",
            "rotation" : [
                0.5000001192092896,
                -0.5000000596046448,
                -0.5,
                0.5
            ],
            "translation" : [
                2.294750928878784,
                0.2449083924293518,
                -2.964911937713623
            ]
        },
        {
            "children" : [
                0
            ],
            "name" : "MyRoom"
        }
    ],
    "materials" : [
        {
            "doubleSided" : true,
            "name" : "n64",
            "pbrMetallicRoughness" : {
                "baseColorTexture" : {
                    "index" : 0
                },
                "metallicFactor" : 0,
                "roughnessFactor" : 0.5
            }
        }
    ],
    "meshes" : [
        {
            "name" : "Cylinder.009",
            "primitives" : [
                {
                    "attributes" : {
                        "POSITION" : 0,
                        "NORMAL" : 1,
                        "TEXCOORD_0" : 2
                    },
                    "indices" : 3,
                    "material" : 0
                }
            ]
        }
    ],
    "textures" : [
        {
            "sampler" : 0,
            "source" : 0
        }
    ],
    "images" : [
        {
            "bufferView" : 4,
            "mimeType" : "image/png",
            "name" : "n64_bake"
        }
    ],
    "accessors" : [
        {
            "bufferView" : 0,
            "componentType" : 5126,
            "count" : 5346,
            "max" : [
                0.22700470685958862,
                1.6573141813278198,
                0.8355879783630371
            ],
            "min" : [
                -2.234069347381592,
                -0.9085271954536438,
                -0.5250165462493896
            ],
            "type" : "VEC3"
        },
        {
            "bufferView" : 1,
            "componentType" : 5126,
            "count" : 5346,
            "type" : "VEC3"
        },
        {
            "bufferView" : 2,
            "componentType" : 5126,
            "count" : 5346,
            "type" : "VEC2"
        },
        {
            "bufferView" : 3,
            "componentType" : 5123,
            "count" : 7284,
            "type" : "SCALAR"
        }
    ],
    "bufferViews" : [
        {
            "buffer" : 0,
            "byteLength" : 64152,
            "byteOffset" : 0
        },
        {
            "buffer" : 0,
            "byteLength" : 64152,
            "byteOffset" : 64152
        },
        {
            "buffer" : 0,
            "byteLength" : 42768,
            "byteOffset" : 128304
        },
        {
            "buffer" : 0,
            "byteLength" : 14568,
            "byteOffset" : 171072
        },
        {
            "buffer" : 0,
            "byteLength" : 328605,
            "byteOffset" : 185640
        }
    ],
    "samplers" : [
        {
            "magFilter" : 9729,
            "minFilter" : 9987
        }
    ],
    "buffers" : [
        {
            "byteLength" : 514248,
            "uri" : "data:application/octet-stream;base64,"
        }
    ]
}
