{
    "asset" : {
        "generator" : "Khronos glTF Blender I/O v1.7.33",
        "version" : "2.0"
    },
    "scene" : 0,
    "scenes" : [
        {
            "name" : "Scene",
            "nodes" : [
                10
            ]
        }
    ],
    "nodes" : [
        {
            "mesh" : 0,
            "name" : "Blue",
            "rotation" : [
                0.038028784096241,
                0,
                0,
                0.9992766380310059
            ],
            "translation" : [
                0.5678439140319824,
                0.08861822634935379,
                -0.0989123061299324
            ]
        },
        {
            "mesh" : 1,
            "name" : "Body",
            "translation" : [
                0,
                -0.04538099840283394,
                -0.004854902625083923
            ]
        },
        {
            "mesh" : 2,
            "name" : "Digipad",
            "rotation" : [
                0.04142069071531296,
                0,
                0,
                0.9991418123245239
            ],
            "translation" : [
                -0.5702486038208008,
                0.06780533492565155,
                0.04650963842868805
            ]
        },
        {
            "mesh" : 3,
            "name" : "Green",
            "rotation" : [
                0.038028784096241,
                0,
                0,
                0.9992766380310059
            ],
            "translation" : [
                0.37911444902420044,
                0.07767155021429062,
                0.0447014644742012
            ]
        },
        {
            "mesh" : 4,
            "name" : "Red",
            "rotation" : [
                0.038028784096241,
                0,
                0,
                0.9992766380310059
            ],
            "translation" : [
                0.7549178600311279,
                0.07767155021429062,
                0.0447014644742012
            ]
        },
        {
            "mesh" : 5,
            "name" : "Select",
            "rotation" : [
                0.040231820195913315,
                -0.4406614303588867,
                -0.01977417804300785,
                0.8965533375740051
            ],
            "translation" : [
                -0.18239697813987732,
                0.06516780704259872,
                0.10732831805944443
            ]
        },
        {
            "mesh" : 6,
            "name" : "ShoulderL",
            "translation" : [
                -0.5789729952812195,
                -0.02670508623123169,
                -0.3363496959209442
            ]
        },
        {
            "mesh" : 7,
            "name" : "ShoulderR",
            "translation" : [
                0.5789731740951538,
                -0.02670508623123169,
                -0.3363496959209442
            ]
        },
        {
            "mesh" : 8,
            "name" : "Start",
            "rotation" : [
                0.040231820195913315,
                -0.4406614303588867,
                -0.01977417804300785,
                0.8965533375740051
            ],
            "translation" : [
                0.03201019763946533,
                0.06516780704259872,
                0.10732831805944443
            ]
        },
        {
            "mesh" : 9,
            "name" : "Yellow",
            "rotation" : [
                0.038028784096241,
                0,
                0,
                0.9992766380310059
            ],
            "translation" : [
                0.5678439140319824,
                0.06647322326898575,
                0.1916167438030243
            ]
        },
        {
            "children" : [
                0,
                1,
                2,
                3,
                4,
                5,
                6,
                7,
                8,
                9
            ],
            "name" : "Gamepad"
        }
    ],
    "materials" : [
        {
            "doubleSided" : true,
            "name" : "Material.006",
            "pbrMetallicRoughness" : {
                "baseColorFactor" : [
                    0.0006070137023925781,
                    0.07421357929706573,
                    0.520995557308197,
                    1
                ],
                "metallicFactor" : 0,
                "roughnessFactor" : 0.5
            }
        },
        {
            "doubleSided" : true,
            "name" : "Material.003",
            "pbrMetallicRoughness" : {
                "baseColorFactor" : [
                    0.5906190872192383,
                    0.6104956865310669,
                    0.6307573914527893,
                    1
                ],
                "metallicFactor" : 0,
                "roughnessFactor" : 0.5
            }
        },
        {
            "doubleSided" : true,
            "name" : "Material.005",
            "pbrMetallicRoughness" : {
                "baseColorFactor" : [
                    0.20863696932792664,
                    0.23074010014533997,
                    0.2541521191596985,
                    1
                ],
                "metallicFactor" : 0,
                "roughnessFactor" : 0.5
            }
        },
        {
            "doubleSided" : true,
            "name" : "Material.004",
            "pbrMetallicRoughness" : {
                "baseColorFactor" : [
                    0.08437623083591461,
                    0.09084171801805496,
                    0.10224176943302155,
                    1
                ],
                "metallicFactor" : 0,
                "roughnessFactor" : 0.5
            }
        },
        {
            "doubleSided" : true,
            "name" : "Material.009",
            "pbrMetallicRoughness" : {
                "baseColorFactor" : [
                    0.0009105503559112549,
                    0.28314879536628723,
                    0.09758738428354263,
                    1
                ],
                "metallicFactor" : 0,
                "roughnessFactor" : 0.5
            }
        },
        {
            "doubleSided" : true,
            "name" : "Material.007",
            "pbrMetallicRoughness" : {
                "baseColorFactor" : [
                    0.6795427203178406,
                    0.0036763842217624187,
                    0.006512105464935303,
                    1
                ],
                "metallicFactor" : 0,
                "roughnessFactor" : 0.5
            }
        },
        {
            "doubleSided" : true,
            "name" : "Material.008",
            "pbrMetallicRoughness" : {
                "baseColorFactor" : [
                    0.7912983894348145,
                    0.4564109444618225,
                    0,
                    1
                ],
                "metallicFactor" : 0,
                "roughnessFactor" : 0.5
            }
        }
    ],
    "meshes" : [
        {
            "name" : "Cylinder.007",
            "primitives" : [
                {
                    "attributes" : {
                        "POSITION" : 0,
                        "NORMAL" : 1,
                        "TEXCOORD_0" : 2
                    },
                    "indices" : 3,
                    "material" : 0
                }
            ]
        },
        {
            "name" : "Cube.003",
            "primitives" : [
                {
                    "attributes" : {
                        "POSITION" : 4,
                        "NORMAL" : 5,
                        "TEXCOORD_0" : 6
                    },
                    "indices" : 7,
                    "material" : 1
                },
                {
                    "attributes" : {
                        "POSITION" : 8,
                        "NORMAL" : 9,
                        "TEXCOORD_0" : 10
                    },
                    "indices" : 11,
                    "material" : 2
                }
            ]
        },
        {
            "name" : "Cube.004",
            "primitives" : [
                {
                    "attributes" : {
                        "POSITION" : 12,
                        "NORMAL" : 13,
                        "TEXCOORD_0" : 14
                    },
                    "indices" : 15,
                    "material" : 3
                }
            ]
        },
        {
            "name" : "Cylinder.010",
            "primitives" : [
                {
                    "attributes" : {
                        "POSITION" : 16,
                        "NORMAL" : 17,
                        "TEXCOORD_0" : 18
                    },
                    "indices" : 3,
                    "material" : 4
                }
            ]
        },
        {
            "name" : "Cylinder.009",
            "primitives" : [
                {
                    "attributes" : {
                        "POSITION" : 19,
                        "NORMAL" : 20,
                        "TEXCOORD_0" : 21
                    },
                    "indices" : 3,
                    "material" : 5
                }
            ]
        },
        {
            "name" : "Cube.008",
            "primitives" : [
                {
                    "attributes" : {
                        "POSITION" : 22,
                        "NORMAL" : 23,
                        "TEXCOORD_0" : 24
                    },
                    "indices" : 25,
                    "material" : 3
                }
            ]
        },
        {
            "name" : "Cube.010",
            "primitives" : [
                {
                    "attributes" : {
                        "POSITION" : 26,
                        "NORMAL" : 27,
                        "TEXCOORD_0" : 28
                    },
                    "indices" : 29,
                    "material" : 1
                }
            ]
        },
        {
            "name" : "Cube.009",
            "primitives" : [
                {
                    "attributes" : {
                        "POSITION" : 30,
                        "NORMAL" : 31,
                        "TEXCOORD_0" : 32
                    },
                    "indices" : 33,
                    "material" : 1
                }
            ]
        },
        {
            "name" : "Cube.007",
            "primitives" : [
                {
                    "attributes" : {
                        "POSITION" : 34,
                        "NORMAL" : 35,
                        "TEXCOORD_0" : 36
                    },
                    "indices" : 25,
                    "material" : 3
                }
            ]
        },
        {
            "name" : "Cylinder.008",
            "primitives" : [
                {
                    "attributes" : {
                        "POSITION" : 37,
                        "NORMAL" : 38,
                        "TEXCOORD_0" : 39
                    },
                    "indices" : 3,
                    "material" : 6
                }
            ]
        }
    ],
    "accessors" : [
        {
            "bufferView" : 0,
            "componentType" : 5126,
            "count" : 192,
            "max" : [
                0.07309996336698532,
                0.019449254497885704,
                0.07309996336698532
            ],
            "min" : [
                -0.07309996336698532,
                -0.019449254497885704,
                -0.07309996336698532
            ],
            "type" : "VEC3"
        },
        {
            "bufferView" : 1,
            "componentType" : 5126,
            "count" : 192,
            "type" : "VEC3"
        },
        {
            "bufferView" : 2,
            "componentType" : 5126,
            "count" : 192,
            "type" : "VEC2"
        },
        {
            "bufferView" : 3,
            "componentType" : 5123,
            "count" : 372,
            "type" : "SCALAR"
        },
        {
            "bufferView" : 4,
            "componentType" : 5126,
            "count" : 3810,
            "max" : [
                0.9739828109741211,
                0.16133679449558258,
                0.4592776894569397
            ],
            "min" : [
                -0.9739831686019897,
                -0.11853646486997604,
                -0.3621993362903595
            ],
            "type" : "VEC3"
        },
        {
            "bufferView" : 5,
            "componentType" : 5126,
            "count" : 3810,
            "type" : "VEC3"
        },
        {
            "bufferView" : 6,
            "componentType" : 5126,
            "count" : 3810,
            "type" : "VEC2"
        },
        {
            "bufferView" : 7,
            "componentType" : 5123,
            "count" : 6252,
            "type" : "SCALAR"
        },
        {
            "bufferView" : 8,
            "componentType" : 5126,
            "count" : 32,
            "max" : [
                0.9383458495140076,
                0.15622501075267792,
                0.41085919737815857
            ],
            "min" : [
                0.19574297964572906,
                0.09885283559560776,
                -0.32952404022216797
            ],
            "type" : "VEC3"
        },
        {
            "bufferView" : 9,
            "componentType" : 5126,
            "count" : 32,
            "type" : "VEC3"
        },
        {
            "bufferView" : 10,
            "componentType" : 5126,
            "count" : 32,
            "type" : "VEC2"
        },
        {
            "bufferView" : 11,
            "componentType" : 5123,
            "count" : 90,
            "type" : "SCALAR"
        },
        {
            "bufferView" : 12,
            "componentType" : 5126,
            "count" : 4184,
            "max" : [
                0.1710227131843567,
                0.032728612422943115,
                0.17102277278900146
            ],
            "min" : [
                -0.17102283239364624,
                -0.03272859752178192,
                -0.17102277278900146
            ],
            "type" : "VEC3"
        },
        {
            "bufferView" : 13,
            "componentType" : 5126,
            "count" : 4184,
            "type" : "VEC3"
        },
        {
            "bufferView" : 14,
            "componentType" : 5126,
            "count" : 4184,
            "type" : "VEC2"
        },
        {
            "bufferView" : 15,
            "componentType" : 5123,
            "count" : 6300,
            "type" : "SCALAR"
        },
        {
            "bufferView" : 16,
            "componentType" : 5126,
            "count" : 192,
            "max" : [
                0.07309996336698532,
                0.019449254497885704,
                0.07309996336698532
            ],
            "min" : [
                -0.07309996336698532,
                -0.019449254497885704,
                -0.07309996336698532
            ],
            "type" : "VEC3"
        },
        {
            "bufferView" : 17,
            "componentType" : 5126,
            "count" : 192,
            "type" : "VEC3"
        },
        {
            "bufferView" : 18,
            "componentType" : 5126,
            "count" : 192,
            "type" : "VEC2"
        },
        {
            "bufferView" : 19,
            "componentType" : 5126,
            "count" : 192,
            "max" : [
                0.07309996336698532,
                0.019449254497885704,
                0.07309996336698532
            ],
            "min" : [
                -0.07309996336698532,
                -0.019449254497885704,
                -0.07309996336698532
            ],
            "type" : "VEC3"
        },
        {
            "bufferView" : 20,
            "componentType" : 5126,
            "count" : 192,
            "type" : "VEC3"
        },
        {
            "bufferView" : 21,
            "componentType" : 5126,
            "count" : 192,
            "type" : "VEC2"
        },
        {
            "bufferView" : 22,
            "componentType" : 5126,
            "count" : 1944,
            "max" : [
                0.028522277250885963,
                0.03444143012166023,
                0.07559932768344879
            ],
            "min" : [
                -0.028522277250885963,
                -0.03444143012166023,
                -0.07559932768344879
            ],
            "type" : "VEC3"
        },
        {
            "bufferView" : 23,
            "componentType" : 5126,
            "count" : 1944,
            "type" : "VEC3"
        },
        {
            "bufferView" : 24,
            "componentType" : 5126,
            "count" : 1944,
            "type" : "VEC2"
        },
        {
            "bufferView" : 25,
            "componentType" : 5123,
            "count" : 2916,
            "type" : "SCALAR"
        },
        {
            "bufferView" : 26,
            "componentType" : 5126,
            "count" : 900,
            "max" : [
                0.2148369997739792,
                0.0479581318795681,
                0.05212400108575821
            ],
            "min" : [
                -0.2148369997739792,
                -0.0479581318795681,
                -0.05212400108575821
            ],
            "type" : "VEC3"
        },
        {
            "bufferView" : 27,
            "componentType" : 5126,
            "count" : 900,
            "type" : "VEC3"
        },
        {
            "bufferView" : 28,
            "componentType" : 5126,
            "count" : 900,
            "type" : "VEC2"
        },
        {
            "bufferView" : 29,
            "componentType" : 5123,
            "count" : 1356,
            "type" : "SCALAR"
        },
        {
            "bufferView" : 30,
            "componentType" : 5126,
            "count" : 900,
            "max" : [
                0.21483665704727173,
                0.0479581318795681,
                0.05212367698550224
            ],
            "min" : [
                -0.21483665704727173,
                -0.0479581318795681,
                -0.05212367698550224
            ],
            "type" : "VEC3"
        },
        {
            "bufferView" : 31,
            "componentType" : 5126,
            "count" : 900,
            "type" : "VEC3"
        },
        {
            "bufferView" : 32,
            "componentType" : 5126,
            "count" : 900,
            "type" : "VEC2"
        },
        {
            "bufferView" : 33,
            "componentType" : 5123,
            "count" : 1356,
            "type" : "SCALAR"
        },
        {
            "bufferView" : 34,
            "componentType" : 5126,
            "count" : 1944,
            "max" : [
                0.028522277250885963,
                0.03444143012166023,
                0.07559932768344879
            ],
            "min" : [
                -0.028522277250885963,
                -0.03444143012166023,
                -0.07559932768344879
            ],
            "type" : "VEC3"
        },
        {
            "bufferView" : 35,
            "componentType" : 5126,
            "count" : 1944,
            "type" : "VEC3"
        },
        {
            "bufferView" : 36,
            "componentType" : 5126,
            "count" : 1944,
            "type" : "VEC2"
        },
        {
            "bufferView" : 37,
            "componentType" : 5126,
            "count" : 192,
            "max" : [
                0.07309996336698532,
                0.019449254497885704,
                0.07309996336698532
            ],
            "min" : [
                -0.07309996336698532,
                -0.019449254497885704,
                -0.07309996336698532
            ],
            "type" : "VEC3"
        },
        {
            "bufferView" : 38,
            "componentType" : 5126,
            "count" : 192,
            "type" : "VEC3"
        },
        {
            "bufferView" : 39,
            "componentType" : 5126,
            "count" : 192,
            "type" : "VEC2"
        }
    ],
    "bufferViews" : [
        {
            "buffer" : 0,
            "byteLength" : 2304,
            "byteOffset" : 0
        },
        {
            "buffer" : 0,
            "byteLength" : 2304,
            "byteOffset" : 2304
        },
        {
            "buffer" : 0,
            "byteLength" : 1536,
            "byteOffset" : 4608
        },
        {
            "buffer" : 0,
            "byteLength" : 744,
            "byteOffset" : 6144
        },
        {
            "buffer" : 0,
            "byteLength" : 45720,
            "byteOffset" : 6888
        },
        {
            "buffer" : 0,
            "byteLength" : 45720,
            "byteOffset" : 52608
        },
        {
            "buffer" : 0,
            "byteLength" : 30480,
            "byteOffset" : 98328
        },
        {
            "buffer" : 0,
            "byteLength" : 12504,
            "byteOffset" : 128808
        },
        {
            "buffer" : 0,
            "byteLength" : 384,
            "byteOffset" : 141312
        },
        {
            "buffer" : 0,
            "byteLength" : 384,
            "byteOffset" : 141696
        },
        {
            "buffer" : 0,
            "byteLength" : 256,
            "byteOffset" : 142080
        },
        {
            "buffer" : 0,
            "byteLength" : 180,
            "byteOffset" : 142336
        },
        {
            "buffer" : 0,
            "byteLength" : 50208,
            "byteOffset" : 142516
        },
        {
            "buffer" : 0,
            "byteLength" : 50208,
            "byteOffset" : 192724
        },
        {
            "buffer" : 0,
            "byteLength" : 33472,
            "byteOffset" : 242932
        },
        {
            "buffer" : 0,
            "byteLength" : 12600,
            "byteOffset" : 276404
        },
        {
            "buffer" : 0,
            "byteLength" : 2304,
            "byteOffset" : 289004
        },
        {
            "buffer" : 0,
            "byteLength" : 2304,
            "byteOffset" : 291308
        },
        {
            "buffer" : 0,
            "byteLength" : 1536,
            "byteOffset" : 293612
        },
        {
            "buffer" : 0,
            "byteLength" : 2304,
            "byteOffset" : 295148
        },
        {
            "buffer" : 0,
            "byteLength" : 2304,
            "byteOffset" : 297452
        },
        {
            "buffer" : 0,
            "byteLength" : 1536,
            "byteOffset" : 299756
        },
        {
            "buffer" : 0,
            "byteLength" : 23328,
            "byteOffset" : 301292
        },
        {
            "buffer" : 0,
            "byteLength" : 23328,
            "byteOffset" : 324620
        },
        {
            "buffer" : 0,
            "byteLength" : 15552,
            "byteOffset" : 347948
        },
        {
            "buffer" : 0,
            "byteLength" : 5832,
            "byteOffset" : 363500
        },
        {
            "buffer" : 0,
            "byteLength" : 10800,
            "byteOffset" : 369332
        },
        {
            "buffer" : 0,
            "byteLength" : 10800,
            "byteOffset" : 380132
        },
        {
            "buffer" : 0,
            "byteLength" : 7200,
            "byteOffset" : 390932
        },
        {
            "buffer" : 0,
            "byteLength" : 2712,
            "byteOffset" : 398132
        },
        {
            "buffer" : 0,
            "byteLength" : 10800,
            "byteOffset" : 400844
        },
        {
            "buffer" : 0,
            "byteLength" : 10800,
            "byteOffset" : 411644
        },
        {
            "buffer" : 0,
            "byteLength" : 7200,
            "byteOffset" : 422444
        },
        {
            "buffer" : 0,
            "byteLength" : 2712,
            "byteOffset" : 429644
        },
        {
            "buffer" : 0,
            "byteLength" : 23328,
            "byteOffset" : 432356
        },
        {
            "buffer" : 0,
            "byteLength" : 23328,
            "byteOffset" : 455684
        },
        {
            "buffer" : 0,
            "byteLength" : 15552,
            "byteOffset" : 479012
        },
        {
            "buffer" : 0,
            "byteLength" : 2304,
            "byteOffset" : 494564
        },
        {
            "buffer" : 0,
            "byteLength" : 2304,
            "byteOffset" : 496868
        },
        {
            "buffer" : 0,
            "byteLength" : 1536,
            "byteOffset" : 499172
        }
    ],
    "buffers" : [
        {
            "byteLength" : 500708,
            "uri" : "data:application/octet-stream;base64,"
        }
    ]
}
