{
    "asset" : {
        "generator" : "Khronos glTF Blender I/O v1.6.16",
        "version" : "2.0"
    },
    "scene" : 0,
    "scenes" : [
        {
            "name" : "Scene",
            "nodes" : [
                1
            ]
        }
    ],
    "nodes" : [
        {
            "mesh" : 0,
            "name" : "MonitorNew",
            "scale" : [
                0.2627473473548889,
                0.020162396132946014,
                0.5037009119987488
            ],
            "translation" : [
                -3.4029836654663086,
                1.3542624711990356,
                -1.1653399467468262
            ]
        },
        {
            "children" : [
                0
            ],
            "name" : "MyRoom"
        }
    ],
    "materials" : [
        {
            "doubleSided" : true,
            "name" : "monitor",
            "pbrMetallicRoughness" : {
                "baseColorTexture" : {
                    "index" : 0
                },
                "metallicFactor" : 0,
                "roughnessFactor" : 0.5
            }
        }
    ],
    "meshes" : [
        {
            "name" : "Cube.023",
            "primitives" : [
                {
                    "attributes" : {
                        "POSITION" : 0,
                        "NORMAL" : 1,
                        "TEXCOORD_0" : 2
                    },
                    "indices" : 3,
                    "material" : 0
                }
            ]
        }
    ],
    "textures" : [
        {
            "sampler" : 0,
            "source" : 0
        }
    ],
    "images" : [
        {
            "bufferView" : 4,
            "mimeType" : "image/png",
            "name" : "pc_bake"
        }
    ],
    "accessors" : [
        {
            "bufferView" : 0,
            "componentType" : 5126,
            "count" : 808,
            "max" : [
                4.090452194213867,
                65.6634521484375,
                1.945989727973938
            ],
            "min" : [
                -1.0584917068481445,
                -4.958073616027832,
                -1.97855544090271
            ],
            "type" : "VEC3"
        },
        {
            "bufferView" : 1,
            "componentType" : 5126,
            "count" : 808,
            "type" : "VEC3"
        },
        {
            "bufferView" : 2,
            "componentType" : 5126,
            "count" : 808,
            "type" : "VEC2"
        },
        {
            "bufferView" : 3,
            "componentType" : 5123,
            "count" : 1188,
            "type" : "SCALAR"
        }
    ],
    "bufferViews" : [
        {
            "buffer" : 0,
            "byteLength" : 9696,
            "byteOffset" : 0
        },
        {
            "buffer" : 0,
            "byteLength" : 9696,
            "byteOffset" : 9696
        },
        {
            "buffer" : 0,
            "byteLength" : 6464,
            "byteOffset" : 19392
        },
        {
            "buffer" : 0,
            "byteLength" : 2376,
            "byteOffset" : 25856
        },
        {
            "buffer" : 0,
            "byteLength" : 289899,
            "byteOffset" : 28232
        }
    ],
    "samplers" : [
        {
            "magFilter" : 9729,
            "minFilter" : 9987
        }
    ],
    "buffers" : [
        {
            "byteLength" : 318132,
            "uri" : "data:application/octet-stream;base64,"
        }
    ]
}
