{
    "asset" : {
        "generator" : "Khronos glTF Blender I/O v1.6.16",
        "version" : "2.0"
    },
    "scene" : 0,
    "scenes" : [
        {
            "name" : "Scene",
            "nodes" : [
                1
            ]
        }
    ],
    "nodes" : [
        {
            "mesh" : 0,
            "name" : "RecordPlayer",
            "translation" : [
                0.6976783275604248,
                1.2311406135559082,
                -3.4192631244659424
            ]
        },
        {
            "children" : [
                0
            ],
            "name" : "MyRoom"
        }
    ],
    "materials" : [
        {
            "doubleSided" : true,
            "name" : "records",
            "pbrMetallicRoughness" : {
                "baseColorTexture" : {
                    "index" : 0
                },
                "metallicFactor" : 0,
                "roughnessFactor" : 0.5
            }
        }
    ],
    "meshes" : [
        {
            "name" : "Cube.006",
            "primitives" : [
                {
                    "attributes" : {
                        "POSITION" : 0,
                        "NORMAL" : 1,
                        "TEXCOORD_0" : 2
                    },
                    "indices" : 3,
                    "material" : 0
                }
            ]
        }
    ],
    "textures" : [
        {
            "sampler" : 0,
            "source" : 0
        }
    ],
    "images" : [
        {
            "bufferView" : 4,
            "mimeType" : "image/png",
            "name" : "records_bake"
        }
    ],
    "accessors" : [
        {
            "bufferView" : 0,
            "componentType" : 5126,
            "count" : 2976,
            "max" : [
                0.5443587303161621,
                0.15832136571407318,
                2.8921327590942383
            ],
            "min" : [
                -0.6295527815818787,
                -1.2136845588684082,
                -0.43643122911453247
            ],
            "type" : "VEC3"
        },
        {
            "bufferView" : 1,
            "componentType" : 5126,
            "count" : 2976,
            "type" : "VEC3"
        },
        {
            "bufferView" : 2,
            "componentType" : 5126,
            "count" : 2976,
            "type" : "VEC2"
        },
        {
            "bufferView" : 3,
            "componentType" : 5123,
            "count" : 5220,
            "type" : "SCALAR"
        }
    ],
    "bufferViews" : [
        {
            "buffer" : 0,
            "byteLength" : 35712,
            "byteOffset" : 0
        },
        {
            "buffer" : 0,
            "byteLength" : 35712,
            "byteOffset" : 35712
        },
        {
            "buffer" : 0,
            "byteLength" : 23808,
            "byteOffset" : 71424
        },
        {
            "buffer" : 0,
            "byteLength" : 10440,
            "byteOffset" : 95232
        },
        {
            "buffer" : 0,
            "byteLength" : 279905,
            "byteOffset" : 105672
        }
    ],
    "samplers" : [
        {
            "magFilter" : 9729,
            "minFilter" : 9987
        }
    ],
    "buffers" : [
        {
            "byteLength" : 385580,
            "uri" : "data:application/octet-stream;base64,"
        }
    ]
}
