{
    "asset" : {
        "generator" : "Khronos glTF Blender I/O v1.4.40",
        "version" : "2.0"
    },
    "scene" : 0,
    "scenes" : [
        {
            "name" : "Scene",
            "nodes" : [
                0
            ]
        }
    ],
    "nodes" : [
        {
            "mesh" : 0,
            "name" : "rock1"
        }
    ],
    "materials" : [
        {
            "doubleSided" : true,
            "name" : "brocco_jg_rock",
            "normalTexture" : {
                "index" : 0,
                "texCoord" : 0
            },
            "pbrMetallicRoughness" : {
                "baseColorTexture" : {
                    "index" : 1,
                    "texCoord" : 0
                },
                "metallicFactor" : 0,
                "roughnessFactor" : 0.5527864098548889
            }
        }
    ],
    "meshes" : [
        {
            "name" : "Scene",
            "primitives" : [
                {
                    "attributes" : {
                        "POSITION" : 0,
                        "NORMAL" : 1,
                        "TEXCOORD_0" : 2
                    },
                    "indices" : 3,
                    "material" : 0
                }
            ]
        }
    ],
    "textures" : [
        {
            "sampler" : 0,
            "source" : 0
        },
        {
            "sampler" : 0,
            "source" : 1
        }
    ],
    "images" : [
        {
            "bufferView" : 4,
            "mimeType" : "image/png",
            "name" : "brocco_jg_rock_normal"
        },
        {
            "bufferView" : 5,
            "mimeType" : "image/png",
            "name" : "brocco_jg_rock"
        }
    ],
    "accessors" : [
        {
            "bufferView" : 0,
            "componentType" : 5126,
            "count" : 702,
            "max" : [
                0.9549270272254944,
                2.5108590126037598,
                0.9364779591560364
            ],
            "min" : [
                -1.6945350170135498,
                -1.171470046043396,
                -1.7992467880249023
            ],
            "type" : "VEC3"
        },
        {
            "bufferView" : 1,
            "componentType" : 5126,
            "count" : 702,
            "type" : "VEC3"
        },
        {
            "bufferView" : 2,
            "componentType" : 5126,
            "count" : 702,
            "type" : "VEC2"
        },
        {
            "bufferView" : 3,
            "componentType" : 5123,
            "count" : 732,
            "type" : "SCALAR"
        }
    ],
    "bufferViews" : [
        {
            "buffer" : 0,
            "byteLength" : 8424,
            "byteOffset" : 0
        },
        {
            "buffer" : 0,
            "byteLength" : 8424,
            "byteOffset" : 8424
        },
        {
            "buffer" : 0,
            "byteLength" : 5616,
            "byteOffset" : 16848
        },
        {
            "buffer" : 0,
            "byteLength" : 1464,
            "byteOffset" : 22464
        },
        {
            "buffer" : 0,
            "byteLength" : 44446,
            "byteOffset" : 23928
        },
        {
            "buffer" : 0,
            "byteLength" : 348423,
            "byteOffset" : 68376
        }
    ],
    "samplers" : [
        {
            "magFilter" : 9729,
            "minFilter" : 9986
        }
    ],
    "buffers" : [
        {
            "byteLength" : 416800,
            "uri" : "data:application/octet-stream;base64,"
        }
    ]
}
