{
    "asset" : {
        "generator" : "Khronos glTF Blender I/O v1.4.40",
        "version" : "2.0"
    },
    "scene" : 0,
    "scenes" : [
        {
            "name" : "Scene",
            "nodes" : [
                0
            ]
        }
    ],
    "nodes" : [
        {
            "mesh" : 0,
            "name" : "sakura2"
        }
    ],
    "materials" : [
        {
            "doubleSided" : true,
            "name" : "Optimized_Bark_Material.002",
            "pbrMetallicRoughness" : {
                "baseColorTexture" : {
                    "index" : 0,
                    "texCoord" : 0
                },
                "metallicFactor" : 0,
                "roughnessFactor" : 0.5527864098548889
            }
        },
        {
            "doubleSided" : true,
            "name" : "Optimized_Sprout_Material_1_0.002",
            "pbrMetallicRoughness" : {
                "baseColorTexture" : {
                    "index" : 1,
                    "texCoord" : 0
                },
                "metallicFactor" : 0,
                "roughnessFactor" : 0.5527864098548889
            }
        }
    ],
    "meshes" : [
        {
            "name" : "Scene.005",
            "primitives" : [
                {
                    "attributes" : {
                        "POSITION" : 0,
                        "NORMAL" : 1,
                        "TEXCOORD_0" : 2,
                        "TEXCOORD_1" : 3,
                        "TEXCOORD_2" : 4,
                        "TEXCOORD_3" : 5,
                        "COLOR_0" : 6
                    },
                    "indices" : 7,
                    "material" : 0
                },
                {
                    "attributes" : {
                        "POSITION" : 8,
                        "NORMAL" : 9,
                        "TEXCOORD_0" : 10,
                        "TEXCOORD_1" : 11,
                        "TEXCOORD_2" : 12,
                        "TEXCOORD_3" : 13,
                        "COLOR_0" : 14
                    },
                    "indices" : 15,
                    "material" : 1
                }
            ]
        }
    ],
    "textures" : [
        {
            "sampler" : 0,
            "source" : 0
        },
        {
            "sampler" : 0,
            "source" : 1
        }
    ],
    "images" : [
        {
            "bufferView" : 8,
            "mimeType" : "image/png",
            "name" : "bark"
        },
        {
            "bufferView" : 17,
            "mimeType" : "image/png",
            "name" : "atlas"
        }
    ],
    "accessors" : [
        {
            "bufferView" : 0,
            "componentType" : 5126,
            "count" : 1264,
            "max" : [
                0.8599963784217834,
                11.087190628051758,
                5.013007640838623
            ],
            "min" : [
                -5.280041694641113,
                -0.007614659145474434,
                -7.170849800109863
            ],
            "type" : "VEC3"
        },
        {
            "bufferView" : 1,
            "componentType" : 5126,
            "count" : 1264,
            "type" : "VEC3"
        },
        {
            "bufferView" : 2,
            "componentType" : 5126,
            "count" : 1264,
            "type" : "VEC2"
        },
        {
            "bufferView" : 3,
            "componentType" : 5126,
            "count" : 1264,
            "type" : "VEC2"
        },
        {
            "bufferView" : 4,
            "componentType" : 5126,
            "count" : 1264,
            "type" : "VEC2"
        },
        {
            "bufferView" : 5,
            "componentType" : 5126,
            "count" : 1264,
            "type" : "VEC2"
        },
        {
            "bufferView" : 6,
            "componentType" : 5123,
            "count" : 1264,
            "normalized" : true,
            "type" : "VEC4"
        },
        {
            "bufferView" : 7,
            "componentType" : 5123,
            "count" : 5292,
            "type" : "SCALAR"
        },
        {
            "bufferView" : 9,
            "componentType" : 5126,
            "count" : 1056,
            "max" : [
                2.2545623779296875,
                12.544977188110352,
                6.504443645477295
            ],
            "min" : [
                -6.919462203979492,
                3.0271427631378174,
                -8.812586784362793
            ],
            "type" : "VEC3"
        },
        {
            "bufferView" : 10,
            "componentType" : 5126,
            "count" : 1056,
            "type" : "VEC3"
        },
        {
            "bufferView" : 11,
            "componentType" : 5126,
            "count" : 1056,
            "type" : "VEC2"
        },
        {
            "bufferView" : 12,
            "componentType" : 5126,
            "count" : 1056,
            "type" : "VEC2"
        },
        {
            "bufferView" : 13,
            "componentType" : 5126,
            "count" : 1056,
            "type" : "VEC2"
        },
        {
            "bufferView" : 14,
            "componentType" : 5126,
            "count" : 1056,
            "type" : "VEC2"
        },
        {
            "bufferView" : 15,
            "componentType" : 5123,
            "count" : 1056,
            "normalized" : true,
            "type" : "VEC4"
        },
        {
            "bufferView" : 16,
            "componentType" : 5123,
            "count" : 1584,
            "type" : "SCALAR"
        }
    ],
    "bufferViews" : [
        {
            "buffer" : 0,
            "byteLength" : 15168,
            "byteOffset" : 0
        },
        {
            "buffer" : 0,
            "byteLength" : 15168,
            "byteOffset" : 15168
        },
        {
            "buffer" : 0,
            "byteLength" : 10112,
            "byteOffset" : 30336
        },
        {
            "buffer" : 0,
            "byteLength" : 10112,
            "byteOffset" : 40448
        },
        {
            "buffer" : 0,
            "byteLength" : 10112,
            "byteOffset" : 50560
        },
        {
            "buffer" : 0,
            "byteLength" : 10112,
            "byteOffset" : 60672
        },
        {
            "buffer" : 0,
            "byteLength" : 10112,
            "byteOffset" : 70784
        },
        {
            "buffer" : 0,
            "byteLength" : 10584,
            "byteOffset" : 80896
        },
        {
            "buffer" : 0,
            "byteLength" : 185695,
            "byteOffset" : 91480
        },
        {
            "buffer" : 0,
            "byteLength" : 12672,
            "byteOffset" : 277176
        },
        {
            "buffer" : 0,
            "byteLength" : 12672,
            "byteOffset" : 289848
        },
        {
            "buffer" : 0,
            "byteLength" : 8448,
            "byteOffset" : 302520
        },
        {
            "buffer" : 0,
            "byteLength" : 8448,
            "byteOffset" : 310968
        },
        {
            "buffer" : 0,
            "byteLength" : 8448,
            "byteOffset" : 319416
        },
        {
            "buffer" : 0,
            "byteLength" : 8448,
            "byteOffset" : 327864
        },
        {
            "buffer" : 0,
            "byteLength" : 8448,
            "byteOffset" : 336312
        },
        {
            "buffer" : 0,
            "byteLength" : 3168,
            "byteOffset" : 344760
        },
        {
            "buffer" : 0,
            "byteLength" : 75236,
            "byteOffset" : 347928
        }
    ],
    "samplers" : [
        {
            "magFilter" : 9729,
            "minFilter" : 9986
        }
    ],
    "buffers" : [
        {
            "byteLength" : 423164,
            "uri" : "data:application/octet-stream;base64,"
        }
    ]
}
