{
    "asset" : {
        "generator" : "Khronos glTF Blender I/O v1.4.40",
        "version" : "2.0"
    },
    "scene" : 0,
    "scenes" : [
        {
            "name" : "Scene",
            "nodes" : [
                0
            ]
        }
    ],
    "nodes" : [
        {
            "mesh" : 0,
            "name" : "sakura1"
        }
    ],
    "materials" : [
        {
            "doubleSided" : true,
            "name" : "Optimized_Bark_Material",
            "pbrMetallicRoughness" : {
                "baseColorTexture" : {
                    "index" : 0,
                    "texCoord" : 0
                },
                "metallicFactor" : 0,
                "roughnessFactor" : 0.5527864098548889
            }
        },
        {
            "doubleSided" : true,
            "name" : "Optimized_Sprout_Material_1_0",
            "pbrMetallicRoughness" : {
                "baseColorTexture" : {
                    "index" : 1,
                    "texCoord" : 0
                },
                "metallicFactor" : 0,
                "roughnessFactor" : 0.5527864098548889
            }
        }
    ],
    "meshes" : [
        {
            "name" : "Scene.003",
            "primitives" : [
                {
                    "attributes" : {
                        "POSITION" : 0,
                        "NORMAL" : 1,
                        "TEXCOORD_0" : 2,
                        "TEXCOORD_1" : 3,
                        "TEXCOORD_2" : 4,
                        "TEXCOORD_3" : 5,
                        "COLOR_0" : 6
                    },
                    "indices" : 7,
                    "material" : 0
                },
                {
                    "attributes" : {
                        "POSITION" : 8,
                        "NORMAL" : 9,
                        "TEXCOORD_0" : 10,
                        "TEXCOORD_1" : 11,
                        "TEXCOORD_2" : 12,
                        "TEXCOORD_3" : 13,
                        "COLOR_0" : 14
                    },
                    "indices" : 15,
                    "material" : 1
                }
            ]
        }
    ],
    "textures" : [
        {
            "sampler" : 0,
            "source" : 0
        },
        {
            "sampler" : 0,
            "source" : 1
        }
    ],
    "images" : [
        {
            "bufferView" : 8,
            "mimeType" : "image/png",
            "name" : "bark"
        },
        {
            "bufferView" : 17,
            "mimeType" : "image/png",
            "name" : "atlas"
        }
    ],
    "accessors" : [
        {
            "bufferView" : 0,
            "componentType" : 5126,
            "count" : 1272,
            "max" : [
                2.853876829147339,
                14.815592765808105,
                4.603065013885498
            ],
            "min" : [
                -3.0928139686584473,
                -0.0007074209279380739,
                -3.208584785461426
            ],
            "type" : "VEC3"
        },
        {
            "bufferView" : 1,
            "componentType" : 5126,
            "count" : 1272,
            "type" : "VEC3"
        },
        {
            "bufferView" : 2,
            "componentType" : 5126,
            "count" : 1272,
            "type" : "VEC2"
        },
        {
            "bufferView" : 3,
            "componentType" : 5126,
            "count" : 1272,
            "type" : "VEC2"
        },
        {
            "bufferView" : 4,
            "componentType" : 5126,
            "count" : 1272,
            "type" : "VEC2"
        },
        {
            "bufferView" : 5,
            "componentType" : 5126,
            "count" : 1272,
            "type" : "VEC2"
        },
        {
            "bufferView" : 6,
            "componentType" : 5123,
            "count" : 1272,
            "normalized" : true,
            "type" : "VEC4"
        },
        {
            "bufferView" : 7,
            "componentType" : 5123,
            "count" : 5316,
            "type" : "SCALAR"
        },
        {
            "bufferView" : 9,
            "componentType" : 5126,
            "count" : 1192,
            "max" : [
                4.396555423736572,
                16.313066482543945,
                5.90067195892334
            ],
            "min" : [
                -4.381255149841309,
                4.002773284912109,
                -4.700713634490967
            ],
            "type" : "VEC3"
        },
        {
            "bufferView" : 10,
            "componentType" : 5126,
            "count" : 1192,
            "type" : "VEC3"
        },
        {
            "bufferView" : 11,
            "componentType" : 5126,
            "count" : 1192,
            "type" : "VEC2"
        },
        {
            "bufferView" : 12,
            "componentType" : 5126,
            "count" : 1192,
            "type" : "VEC2"
        },
        {
            "bufferView" : 13,
            "componentType" : 5126,
            "count" : 1192,
            "type" : "VEC2"
        },
        {
            "bufferView" : 14,
            "componentType" : 5126,
            "count" : 1192,
            "type" : "VEC2"
        },
        {
            "bufferView" : 15,
            "componentType" : 5123,
            "count" : 1192,
            "normalized" : true,
            "type" : "VEC4"
        },
        {
            "bufferView" : 16,
            "componentType" : 5123,
            "count" : 1788,
            "type" : "SCALAR"
        }
    ],
    "bufferViews" : [
        {
            "buffer" : 0,
            "byteLength" : 15264,
            "byteOffset" : 0
        },
        {
            "buffer" : 0,
            "byteLength" : 15264,
            "byteOffset" : 15264
        },
        {
            "buffer" : 0,
            "byteLength" : 10176,
            "byteOffset" : 30528
        },
        {
            "buffer" : 0,
            "byteLength" : 10176,
            "byteOffset" : 40704
        },
        {
            "buffer" : 0,
            "byteLength" : 10176,
            "byteOffset" : 50880
        },
        {
            "buffer" : 0,
            "byteLength" : 10176,
            "byteOffset" : 61056
        },
        {
            "buffer" : 0,
            "byteLength" : 10176,
            "byteOffset" : 71232
        },
        {
            "buffer" : 0,
            "byteLength" : 10632,
            "byteOffset" : 81408
        },
        {
            "buffer" : 0,
            "byteLength" : 185695,
            "byteOffset" : 92040
        },
        {
            "buffer" : 0,
            "byteLength" : 14304,
            "byteOffset" : 277736
        },
        {
            "buffer" : 0,
            "byteLength" : 14304,
            "byteOffset" : 292040
        },
        {
            "buffer" : 0,
            "byteLength" : 9536,
            "byteOffset" : 306344
        },
        {
            "buffer" : 0,
            "byteLength" : 9536,
            "byteOffset" : 315880
        },
        {
            "buffer" : 0,
            "byteLength" : 9536,
            "byteOffset" : 325416
        },
        {
            "buffer" : 0,
            "byteLength" : 9536,
            "byteOffset" : 334952
        },
        {
            "buffer" : 0,
            "byteLength" : 9536,
            "byteOffset" : 344488
        },
        {
            "buffer" : 0,
            "byteLength" : 3576,
            "byteOffset" : 354024
        },
        {
            "buffer" : 0,
            "byteLength" : 75236,
            "byteOffset" : 357600
        }
    ],
    "samplers" : [
        {
            "magFilter" : 9729,
            "minFilter" : 9986
        }
    ],
    "buffers" : [
        {
            "byteLength" : 432836,
            "uri" : "data:application/octet-stream;base64,"
        }
    ]
}
