{
    "asset" : {
        "generator" : "Khronos glTF Blender I/O v1.4.40",
        "version" : "2.0"
    },
    "scene" : 0,
    "scenes" : [
        {
            "name" : "Scene",
            "nodes" : [
                0
            ]
        }
    ],
    "nodes" : [
        {
            "mesh" : 0,
            "name" : "tori"
        }
    ],
    "materials" : [
        {
            "doubleSided" : true,
            "name" : "brocoo_jg_torii",
            "pbrMetallicRoughness" : {
                "baseColorTexture" : {
                    "index" : 0,
                    "texCoord" : 0
                },
                "metallicFactor" : 0,
                "roughnessFactor" : 0.5527864098548889
            }
        }
    ],
    "meshes" : [
        {
            "name" : "Scene.002",
            "primitives" : [
                {
                    "attributes" : {
                        "POSITION" : 0,
                        "NORMAL" : 1,
                        "TEXCOORD_0" : 2
                    },
                    "indices" : 3,
                    "material" : 0
                }
            ]
        }
    ],
    "textures" : [
        {
            "sampler" : 0,
            "source" : 0
        }
    ],
    "images" : [
        {
            "bufferView" : 4,
            "mimeType" : "image/png",
            "name" : "brocco_jg_torii_wood"
        }
    ],
    "accessors" : [
        {
            "bufferView" : 0,
            "componentType" : 5126,
            "count" : 1348,
            "max" : [
                0.5730410218238831,
                10.523187637329102,
                7.221718788146973
            ],
            "min" : [
                -0.5730410218238831,
                0.03137380629777908,
                -7.221717834472656
            ],
            "type" : "VEC3"
        },
        {
            "bufferView" : 1,
            "componentType" : 5126,
            "count" : 1348,
            "type" : "VEC3"
        },
        {
            "bufferView" : 2,
            "componentType" : 5126,
            "count" : 1348,
            "type" : "VEC2"
        },
        {
            "bufferView" : 3,
            "componentType" : 5123,
            "count" : 2220,
            "type" : "SCALAR"
        }
    ],
    "bufferViews" : [
        {
            "buffer" : 0,
            "byteLength" : 16176,
            "byteOffset" : 0
        },
        {
            "buffer" : 0,
            "byteLength" : 16176,
            "byteOffset" : 16176
        },
        {
            "buffer" : 0,
            "byteLength" : 10784,
            "byteOffset" : 32352
        },
        {
            "buffer" : 0,
            "byteLength" : 4440,
            "byteOffset" : 43136
        },
        {
            "buffer" : 0,
            "byteLength" : 96330,
            "byteOffset" : 47576
        }
    ],
    "samplers" : [
        {
            "magFilter" : 9729,
            "minFilter" : 9986
        }
    ],
    "buffers" : [
        {
            "byteLength" : 143908,
            "uri" : "data:application/octet-stream;base64,"
        }
    ]
}
