{
    "asset" : {
        "generator" : "Khronos glTF Blender I/O v1.4.40",
        "version" : "2.0"
    },
    "scene" : 0,
    "scenes" : [
        {
            "name" : "Scene",
            "nodes" : [
                0
            ]
        }
    ],
    "nodes" : [
        {
            "mesh" : 0,
            "name" : "vr.001"
        }
    ],
    "materials" : [
        {
            "doubleSided" : true,
            "name" : "Material.015",
            "pbrMetallicRoughness" : {
                "baseColorTexture" : {
                    "index" : 0,
                    "texCoord" : 0
                },
                "metallicFactor" : 0,
                "roughnessFactor" : 0.5
            }
        }
    ],
    "meshes" : [
        {
            "name" : "defaultMaterial.001",
            "primitives" : [
                {
                    "attributes" : {
                        "POSITION" : 0,
                        "NORMAL" : 1,
                        "TEXCOORD_0" : 2
                    },
                    "indices" : 3,
                    "material" : 0
                }
            ]
        }
    ],
    "textures" : [
        {
            "sampler" : 0,
            "source" : 0
        }
    ],
    "images" : [
        {
            "bufferView" : 4,
            "mimeType" : "image/png",
            "name" : "vr_tex"
        }
    ],
    "accessors" : [
        {
            "bufferView" : 0,
            "componentType" : 5126,
            "count" : 6108,
            "max" : [
                0.6562880277633667,
                0.5924149751663208,
                0.9807450175285339
            ],
            "min" : [
                -0.6562880277633667,
                -0.59135901927948,
                -1.0163500308990479
            ],
            "type" : "VEC3"
        },
        {
            "bufferView" : 1,
            "componentType" : 5126,
            "count" : 6108,
            "type" : "VEC3"
        },
        {
            "bufferView" : 2,
            "componentType" : 5126,
            "count" : 6108,
            "type" : "VEC2"
        },
        {
            "bufferView" : 3,
            "componentType" : 5123,
            "count" : 17184,
            "type" : "SCALAR"
        }
    ],
    "bufferViews" : [
        {
            "buffer" : 0,
            "byteLength" : 73296,
            "byteOffset" : 0
        },
        {
            "buffer" : 0,
            "byteLength" : 73296,
            "byteOffset" : 73296
        },
        {
            "buffer" : 0,
            "byteLength" : 48864,
            "byteOffset" : 146592
        },
        {
            "buffer" : 0,
            "byteLength" : 34368,
            "byteOffset" : 195456
        },
        {
            "buffer" : 0,
            "byteLength" : 28789,
            "byteOffset" : 229824
        }
    ],
    "samplers" : [
        {
            "magFilter" : 9729,
            "minFilter" : 9986
        }
    ],
    "buffers" : [
        {
            "byteLength" : 258616,
            "uri" : "data:application/octet-stream;base64,"
        }
    ]
}
