<?xml version="1.0" encoding="UTF-8" standalone="no"?>
<svg
   id="svg"
   version="1.1"
   width="1pc"
   height="1pc"
   viewBox="0 0 16 16"
   sodipodi:docname="bitbucket-icon.svg"
   inkscape:version="1.3 (0e150ed, 2023-07-21)"
   xml:space="preserve"
   xmlns:inkscape="http://www.inkscape.org/namespaces/inkscape"
   xmlns:sodipodi="http://sodipodi.sourceforge.net/DTD/sodipodi-0.dtd"
   xmlns="http://www.w3.org/2000/svg"
   xmlns:svg="http://www.w3.org/2000/svg"><defs
     id="defs14" /><sodipodi:namedview
     id="namedview12"
     pagecolor="#505050"
     bordercolor="#eeeeee"
     borderopacity="1"
     inkscape:pageshadow="0"
     inkscape:pageopacity="0"
     inkscape:pagecheckerboard="0"
     showgrid="false"
     inkscape:zoom="28.963094"
     inkscape:cx="6.8880763"
     inkscape:cy="8.7870446"
     inkscape:window-width="1312"
     inkscape:window-height="916"
     inkscape:window-x="0"
     inkscape:window-y="38"
     inkscape:window-maximized="0"
     inkscape:current-layer="svg"
     units="pc"
     inkscape:document-units="pc"
     inkscape:showpageshadow="0"
     inkscape:deskcolor="#505050" /><g
     style="fill:none"
     id="g1"
     transform="scale(0.015625)"><path
       fill-rule="evenodd"
       clip-rule="evenodd"
       d="M 8,0 C 3.58,0 0,3.58 0,8 c 0,3.54 2.29,6.53 5.47,7.59 0.4,0.07 0.55,-0.17 0.55,-0.38 0,-0.19 -0.01,-0.82 -0.01,-1.49 C 4,14.09 3.48,13.23 3.32,12.78 3.23,12.55 2.84,11.84 2.5,11.65 2.22,11.5 1.82,11.13 2.49,11.12 3.12,11.11 3.57,11.7 3.72,11.94 4.44,13.15 5.59,12.81 6.05,12.6 6.12,12.08 6.33,11.73 6.56,11.53 4.78,11.33 2.92,10.64 2.92,7.58 2.92,6.71 3.23,5.99 3.74,5.43 3.66,5.23 3.38,4.41 3.82,3.31 c 0,0 0.67,-0.21 2.2,0.82 0.64,-0.18 1.32,-0.27 2,-0.27 0.68,0 1.36,0.09 2,0.27 1.53,-1.04 2.2,-0.82 2.2,-0.82 0.44,1.1 0.16,1.92 0.08,2.12 0.51,0.56 0.82,1.27 0.82,2.15 0,3.07 -1.87,3.75 -3.65,3.95 0.29,0.25 0.54,0.73 0.54,1.48 0,1.07 -0.01,1.93 -0.01,2.2 0,0.21 0.15,0.46 0.55,0.38 C 13.71,14.53 16,11.53 16,8 16,3.58 12.42,0 8,0 Z"
       transform="scale(64)"
       fill="#1b1f23"
       id="path1" /></g><path
     style="fill:#000000;fill-opacity:1;stroke-width:1.42761;stroke-linejoin:round"
     d="M 4.9884867,15.387062 C 1.8245608,14.09341 -0.1729772,10.922943 0.03617743,7.5268202 0.21594147,4.6079234 1.9512489,2.0396824 4.5920508,0.78416418 7.3960783,-0.54895634 10.745658,-0.10875885 13.156687,1.9097178 c 2.17079,1.8173519 3.218792,4.7691778 2.686855,7.5678608 -0.29707,1.5629784 -1.013991,2.9353584 -2.134812,4.0866044 -0.831932,0.854515 -1.74506,1.460947 -2.845619,1.889848 -0.474242,0.184818 -0.646812,0.174737 -0.78117,-0.04563 -0.06572,-0.107782 -0.06897,-0.175268 -0.06967,-1.442351 -7.65e-4,-1.395438 -0.017762,-1.595448 -0.164312,-1.933495 -0.037046,-0.08545 -0.1227048,-0.22776 -0.1903533,-0.316238 -0.067649,-0.08848 -0.1138183,-0.170046 -0.1025999,-0.181265 0.011219,-0.01122 0.065863,-0.0204 0.1214311,-0.0204 0.1502149,0 0.7469281,-0.127302 1.0708061,-0.228445 1.583559,-0.494523 2.372901,-1.7039658 2.372901,-3.6358005 0,-0.8933379 -0.190167,-1.4563855 -0.723926,-2.1434002 -0.06647,-0.085555 -0.06643,-0.088908 0.0042,-0.3797936 0.100673,-0.4146899 0.077,-1.0570508 -0.05533,-1.5011694 -0.0508,-0.1704987 -0.100499,-0.3181005 -0.110439,-0.3280035 -0.0099,-0.0099 -0.13025,-0.015668 -0.267356,-0.012812 -0.416008,0.00867 -1.010514,0.2384405 -1.659371,0.6413367 L 10.030006,4.0991249 9.5638953,4.0085776 C 8.8687659,3.8735406 8.4469256,3.8385806 7.7685071,3.8597841 7.1919267,3.877805 6.6341766,3.9515316 6.1975423,4.0674429 L 6.0249088,4.1132712 5.8004853,3.968556 C 5.2692416,3.6259938 4.6302722,3.3572186 4.2016336,3.2960174 3.8376559,3.2440485 3.8133236,3.2581019 3.7120147,3.578802 3.5379017,4.1299666 3.5203349,4.848106 3.6703648,5.2814575 l 0.046282,0.1336829 -0.1830364,0.2433069 c -0.5753597,0.764816 -0.755351,1.7375467 -0.544996,2.9453338 0.1729949,0.9932778 0.615801,1.7427459 1.3131246,2.2225169 0.4166164,0.286639 1.1105499,0.539879 1.7560175,0.640829 0.1908201,0.02984 0.3666214,0.06013 0.3906693,0.06729 0.029171,0.0087 0.00341,0.06914 -0.077394,0.181616 -0.1451938,0.202098 -0.2162107,0.362421 -0.2927495,0.660889 l -0.05732,0.223524 -0.2397137,0.08045 C 5.4498448,12.792125 5.0507186,12.8167 4.7655353,12.743436 4.3418307,12.634589 4.0868348,12.43383 3.7261727,11.925151 3.4598814,11.549572 3.2453179,11.347323 2.9771702,11.219136 2.738955,11.105258 2.4106974,11.072985 2.2356037,11.146229 c -0.2160888,0.09039 -0.1607605,0.238883 0.1746487,0.468724 0.3623865,0.248327 0.6153858,0.584139 0.9168366,1.216938 0.1953013,0.409973 0.3887467,0.615199 0.7347847,0.779531 0.3503907,0.1664 0.7246888,0.227226 1.2379744,0.20118 0.2278763,-0.01156 0.4803527,-0.03406 0.5610589,-0.05 l 0.1467385,-0.02897 -1.292e-4,0.780846 c -1.187e-4,0.719518 -0.00554,0.789727 -0.069069,0.893919 -0.1454492,0.238559 -0.3241404,0.234545 -0.9499603,-0.02134 z"
     id="path2" /></svg>
