<?xml version="1.0" encoding="UTF-8" standalone="no"?>
<svg
   fill="#000000"
   viewBox="0 0 16 16"
   width="1pc"
   height="1pc"
   version="1.1"
   id="svg15"
   sodipodi:docname="itchio-icon2.svg"
   inkscape:version="1.1.2 (b8e25be8, 2022-02-05)"
   xmlns:inkscape="http://www.inkscape.org/namespaces/inkscape"
   xmlns:sodipodi="http://sodipodi.sourceforge.net/DTD/sodipodi-0.dtd"
   xmlns="http://www.w3.org/2000/svg"
   xmlns:svg="http://www.w3.org/2000/svg">
  <defs
     id="defs19" />
  <sodipodi:namedview
     id="namedview17"
     pagecolor="#505050"
     bordercolor="#eeeeee"
     borderopacity="1"
     inkscape:pageshadow="0"
     inkscape:pageopacity="0"
     inkscape:pagecheckerboard="0"
     showgrid="false"
     units="pc"
     inkscape:zoom="33.368456"
     inkscape:cx="6.9976268"
     inkscape:cy="6.7129268"
     inkscape:window-width="1312"
     inkscape:window-height="916"
     inkscape:window-x="0"
     inkscape:window-y="38"
     inkscape:window-maximized="0"
     inkscape:current-layer="svg15"
     inkscape:document-units="pc" />
  <path
     d="M 14.818976,5.8549674 C 14.398062,6.0049989 13.414089,5.6984128 12.986275,4.9069423 12.266581,6.2260599 10.440781,6.2115641 9.7148764,4.8996944 9.490619,5.3273204 8.9682716,5.8904821 8.0250103,5.8904821 7.3329173,5.9187489 6.6808459,5.5266376 6.3351444,4.8996944 5.6085503,6.2115641 3.7827496,6.2260599 3.070646,4.9069423 2.6359315,5.6984128 1.6519589,6.0049989 1.2310449,5.8549674 1.1082208,7.2313432 1.024038,14.296595 1.9162376,15.481627 c 2.6200171,0.641439 9.6720514,0.627668 12.2175454,0 1.031584,-1.10458 0.801117,-8.3503049 0.685193,-9.6266596 z m -1.936204,8.0951786 c -1.428348,-0.05798 -2.221874,-1.145168 -2.221874,-2.239601 -1.3317444,0.231933 -3.457015,0.318907 -5.271775,0 0,1.094433 -0.7935264,2.181617 -2.2218738,2.239601 -0.9591319,0 -1.7319575,-0.05798 -1.1523383,-2.268593 0.6417213,-2.3918063 1.0695355,-5.13876 2.8497947,-5.13876 v -0.00725 c 0.5520183,0 1.055735,0 1.6629552,0.7102938 1.000533,-0.1087184 1.994166,-0.1087184 2.9946992,0 0.61412,-0.7030459 1.110937,-0.7030459 1.662955,-0.7030459 1.780259,0 2.208074,2.7614495 2.849795,5.1387601 0.579619,2.210609 -0.193206,2.268593 -1.152338,2.268593 z"
     id="path9"
     style="stroke-width:0.707193" />
  <path
     d="m 9.4050562,10.147898 -0.7638554,-0.02972 v 0.700871 c 0,0.02972 -0.3077502,0.01812 -0.6161905,0.0058 -0.051062,0 -0.6161904,0.03624 -0.6161904,-0.0058 v -0.700871 l -0.7638552,0.02972 C 6.8561115,9.7528874 8.0250103,8.6207656 8.0250103,8.6207656 c 0,0 1.1688988,1.131397 1.3800459,1.5271324 z"
     id="path11"
     style="stroke-width:0.707193" />
  <path
     d="m 16.040317,2.6405243 v 0.7247898 c 0,0.9154097 -0.815608,1.7206513 -1.554622,1.7206513 -0.8853,0 -1.624314,-0.77625 -1.624314,-1.6909349 0,0.9154097 -0.717624,1.6909349 -1.602923,1.6909349 -0.8853,0 -1.5822228,-0.77625 -1.5822228,-1.6909349 0,0.9154097 -0.752815,1.6909349 -1.6450147,1.6909349 h -0.0138 c -0.8921997,0 -1.6450145,-0.77625 -1.6450145,-1.6909349 0,0.9154097 -0.6900229,1.6909349 -1.5822225,1.6909349 -0.8846094,0 -1.6022332,-0.77625 -1.6022332,-1.6909349 0,0.9146849 -0.7390146,1.6909349 -1.624314,1.6909349 -0.73901451,0 -1.55462159,-0.8052416 -1.55462159,-1.7206513 V 2.6405243 C 0.02281477,2.2085495 1.4028606,0.54660626 2.0997837,0.10738359 2.7208044,0.04940039 5.781056,0.01243611 8.0250103,0.01243611 c 2.2439547,0 3.7564847,0.0144958 5.9245367,0.09494748 0.696923,0.43922267 2.076969,2.10116591 2.09077,2.53314071 z"
     id="path13"
     style="stroke-width:0.707193" />
</svg>
