<?xml version="1.0" encoding="UTF-8" standalone="no"?>
<svg
   width="16"
   height="16"
   viewBox="0 0 16 16"
   version="1.1"
   id="svg110"
   sodipodi:docname="twitter-icon.svg"
   inkscape:version="1.1.2 (b8e25be8, 2022-02-05)"
   xmlns:inkscape="http://www.inkscape.org/namespaces/inkscape"
   xmlns:sodipodi="http://sodipodi.sourceforge.net/DTD/sodipodi-0.dtd"
   xmlns="http://www.w3.org/2000/svg"
   xmlns:svg="http://www.w3.org/2000/svg">
  <defs
     id="defs114" />
  <sodipodi:namedview
     id="namedview112"
     pagecolor="#505050"
     bordercolor="#eeeeee"
     borderopacity="1"
     inkscape:pageshadow="0"
     inkscape:pageopacity="0"
     inkscape:pagecheckerboard="0"
     showgrid="false"
     inkscape:zoom="16.115653"
     inkscape:cx="9.8351584"
     inkscape:cy="11.479522"
     inkscape:window-width="1296"
     inkscape:window-height="916"
     inkscape:window-x="0"
     inkscape:window-y="38"
     inkscape:window-maximized="0"
     inkscape:current-layer="svg110" />
  <path
     d="m 15.99536,3.0422693 c -0.588496,0.261257 -1.220979,0.437206 -1.884787,0.516517 0.677804,-0.405882 1.19832,-1.049029 1.442915,-1.815474 -0.633816,0.375891 -1.336279,0.649145 -2.084062,0.796436 -0.597826,-0.637815 -1.451579,-1.036366 -2.395305,-1.036366 -2.1187188,0 -3.6756005,1.97676 -3.1970726,4.028831 C 5.1505059,5.3955863 2.7325407,4.0892993 1.1136769,2.1038753 0.25392634,3.5787803 0.66780628,5.5082203 2.1287158,6.4852703 1.5915383,6.4679403 1.0850186,6.3206513 0.64314677,6.0747233 0.60715717,7.5949483 1.6968411,9.0172023 3.27505,9.3337773 2.8131839,9.4590743 2.3073307,9.4883993 1.7928133,9.3897613 2.2100256,10.693383 3.4216741,11.641774 4.8585906,11.668433 3.4789908,12.75012 1.7408284,13.233313 0,13.028039 c 1.4522454,0.931063 3.1777449,1.474239 5.0305407,1.474239 6.0928993,0 9.5352343,-5.1458407 9.3272943,-9.7611677 0.641147,-0.4632 1.197653,-1.041032 1.637525,-1.698841 z"
     id="path108"
     style="stroke-width:0.666473" />
</svg>
