<?xml version="1.0" encoding="UTF-8" standalone="no"?>
<!-- Generator: Adobe Illustrator 17.1.0, SVG Export Plug-In . SVG Version: 6.00 Build 0)  -->

<svg
   version="1.1"
   id="Capa_1"
   x="0px"
   y="0px"
   viewBox="0 0 16 16"
   xml:space="preserve"
   sodipodi:docname="wordpress-icon2.svg"
   width="1pc"
   height="1pc"
   inkscape:version="1.1.2 (b8e25be8, 2022-02-05)"
   xmlns:inkscape="http://www.inkscape.org/namespaces/inkscape"
   xmlns:sodipodi="http://sodipodi.sourceforge.net/DTD/sodipodi-0.dtd"
   xmlns="http://www.w3.org/2000/svg"
   xmlns:svg="http://www.w3.org/2000/svg"><defs
   id="defs44" /><sodipodi:namedview
   id="namedview42"
   pagecolor="#505050"
   bordercolor="#eeeeee"
   borderopacity="1"
   inkscape:pageshadow="0"
   inkscape:pageopacity="0"
   inkscape:pagecheckerboard="0"
   showgrid="false"
   units="pc"
   width="1pc"
   inkscape:zoom="10.786896"
   inkscape:cx="3.8472605"
   inkscape:cy="13.071415"
   inkscape:window-width="1312"
   inkscape:window-height="916"
   inkscape:window-x="0"
   inkscape:window-y="38"
   inkscape:window-maximized="0"
   inkscape:current-layer="Capa_1"
   inkscape:document-units="pc" />
<path
   d="M 0,0 V 15.982736 H 15.982736 V 0 Z m 5.9629574,12.131737 c -0.031351,0.02661 -0.067049,-0.01027 -0.096818,-0.02654 C 4.5002098,11.35989 3.6721822,10.225863 3.4174249,8.6872418 3.2769394,7.8389285 3.3892355,7.0157748 3.7153224,6.2212056 c 0.014359,-0.034973 0.018112,-0.078377 0.060659,-0.096687 0.033854,0.017848 0.03662,0.052427 0.047289,0.081735 0.7090134,1.9421632 1.4178292,3.8844584 2.1258547,5.8269514 0.011526,0.03155 0.046631,0.07067 0.013832,0.09853 z m 3.395624,0.28321 c -0.4467474,0.13897 -0.9040989,0.210893 -1.3728446,0.204306 -0.4026195,0.006 -0.7962816,-0.0546 -1.1860579,-0.151616 -0.103273,-0.02569 -0.1217804,-0.06699 -0.087597,-0.165645 0.4400955,-1.269704 0.876766,-2.5405937 1.3152149,-3.8108897 0.00961,-0.027927 0.00882,-0.076005 0.049002,-0.072712 0.034315,0.0029 0.036883,0.048739 0.047553,0.077916 0.2873595,0.7848874 0.5739945,1.5700387 0.8607614,2.3551887 0.1631427,0.446683 0.328195,0.892705 0.4885705,1.340441 0.060133,0.168016 0.1007707,0.155963 -0.1146023,0.223011 z M 10.248454,10.681963 C 9.7181926,9.1081715 9.1885236,7.5342471 8.6589207,5.9603229 8.611236,5.8187177 8.6145292,5.8139756 8.7673968,5.8012642 8.8857524,5.791385 9.0043713,5.78414 9.1225948,5.7734697 9.2442435,5.7625366 9.3239383,5.6834353 9.3170219,5.5840482 9.3097975,5.4803142 9.2286328,5.4120803 9.1038243,5.418008 8.7371658,5.4354619 8.3709684,5.465495 8.0041124,5.4750455 7.6009002,5.485518 7.1983466,5.4533763 6.7963199,5.4218938 c -0.043009,-0.00336 -0.086478,-0.00612 -0.1294864,-0.00395 -0.1009014,0.00514 -0.161759,0.064743 -0.1687405,0.1611005 -0.00758,0.105117 0.042877,0.1759855 0.1485206,0.1898826 0.1211877,0.015939 0.2435608,0.024633 0.3656706,0.031416 0.092603,0.00514 0.1456885,0.040966 0.1792785,0.1351505 0.2055579,0.5768267 0.4167142,1.1517434 0.6298464,1.7258039 0.034578,0.093064 0.036158,0.1757219 0.00414,0.2707621 C 7.5151404,8.8539413 7.20901,9.777207 6.9008378,10.699814 6.8875996,10.73939 6.8842397,10.784841 6.8476866,10.815996 6.8035586,10.795909 6.8048096,10.750924 6.79302,10.715887 6.3245444,9.3227525 5.8571158,7.9292923 5.389358,6.5358983 5.3228366,6.3378487 5.2545368,6.140392 5.1883446,5.9422765 5.1490904,5.8247113 5.1533056,5.8171371 5.2800257,5.8040963 5.4017402,5.7915823 5.5239816,5.784535 5.6458937,5.7743921 5.7817688,5.7630637 5.8481586,5.6979913 5.8437457,5.5816776 5.8393987,5.4672737 5.7679376,5.4085241 5.6250153,5.4183377 5.1760283,5.4491614 4.7272389,5.4811708 4.2767372,5.4765605 4.2623133,5.4764287 4.2478893,5.4768238 4.2335312,5.4760994 4.1306534,5.4708963 4.1187981,5.4533108 4.1764281,5.3713774 4.2530265,5.2624403 4.3313374,5.1540301 4.4168933,5.0520744 5.2144922,4.1012786 6.2268039,3.5344631 7.4614685,3.3954925 8.8191651,3.2426907 10.017078,3.6300301 11.053562,4.5187831 c 0.01356,0.011658 0.02654,0.024238 0.03827,0.037739 0.0039,0.00454 0.003,0.013172 0.0063,0.029573 -0.04894,0.0054 -0.09761,0.00816 -0.145425,0.016334 -0.480405,0.082065 -0.758411,0.5425121 -0.633666,1.0460993 0.05994,0.2420459 0.186193,0.4522142 0.31647,0.6597481 0.202397,0.3223984 0.373245,0.6567182 0.44991,1.0344415 0.07745,0.3816752 0.0305,0.754327 -0.07705,1.1204586 -0.220246,0.7499145 -0.448659,1.497458 -0.674304,2.2457914 -0.0069,0.02266 -0.0057,0.05204 -0.03859,0.06223 -0.03662,-0.01765 -0.03622,-0.0573 -0.04696,-0.08925 z m 2.365267,-2.3361541 c -0.164921,1.58848 -0.927152,2.7923861 -2.264892,3.6387241 -0.01363,-0.007 -0.0272,-0.01377 -0.04083,-0.02068 0.05355,-0.158861 0.106039,-0.318051 0.160836,-0.476451 0.395375,-1.143709 0.789498,-2.2878116 1.187903,-3.4303998 0.120924,-0.3467678 0.255218,-0.6885958 0.327404,-1.0507757 0.07587,-0.3806212 0.09201,-0.7633502 0.05783,-1.1490428 -0.0015,-0.017125 -0.0017,-0.034314 -0.0028,-0.056444 0.316274,0.2353278 0.650923,1.8095812 0.574522,2.5450715 z"
   id="path9"
   style="stroke-width:0.0658629" />
<g
   id="g11"
   transform="scale(0.06586283)">
</g>
<g
   id="g13"
   transform="scale(0.06586283)">
</g>
<g
   id="g15"
   transform="scale(0.06586283)">
</g>
<g
   id="g17"
   transform="scale(0.06586283)">
</g>
<g
   id="g19"
   transform="scale(0.06586283)">
</g>
<g
   id="g21"
   transform="scale(0.06586283)">
</g>
<g
   id="g23"
   transform="scale(0.06586283)">
</g>
<g
   id="g25"
   transform="scale(0.06586283)">
</g>
<g
   id="g27"
   transform="scale(0.06586283)">
</g>
<g
   id="g29"
   transform="scale(0.06586283)">
</g>
<g
   id="g31"
   transform="scale(0.06586283)">
</g>
<g
   id="g33"
   transform="scale(0.06586283)">
</g>
<g
   id="g35"
   transform="scale(0.06586283)">
</g>
<g
   id="g37"
   transform="scale(0.06586283)">
</g>
<g
   id="g39"
   transform="scale(0.06586283)">
</g>
</svg>
